HIERARCHY
ROOT Hips
{
  OFFSET 0 0 0
  CHANNELS 6 Xposition Yposition Zposition Zrotation Xrotation Yrotation
  JOINT Spine
  {
    OFFSET 0.00000000 0.00000000 0.00000000
    CHANNELS 3 Zrotation Xrotation Yrotation
    JOINT Spine1
    {
      OFFSET 0.19000000 0.00000000 0.00000000
      CHANNELS 3 Zrotation Xrotation Yrotation
      JOINT Neck
      {
        OFFSET 0.22500000 0.00600000 0.00000000
        CHANNELS 3 Zrotation Xrotation Yrotation
        JOINT Head
        {
          OFFSET 0.14000000 0.00030878 0.00000000
          CHANNELS 3 Zrotation Xrotation Yrotation
          End Site
          {
            OFFSET 0.17000000 0.00000000 0.00000000
          }
        }
      }
      JOINT LeftShoulder
      {
        OFFSET 0.19800000 0.03700000 0.04300000
        CHANNELS 3 Zrotation Xrotation Yrotation
        JOINT LeftArm
        {
          OFFSET 0.08000000 0.00000000 0.00000000
          CHANNELS 3 Zrotation Xrotation Yrotation
          JOINT LeftForeArm
          {
            OFFSET 0.15200000 0.00000000 0.00000000
            CHANNELS 3 Zrotation Xrotation Yrotation
            JOINT LeftHand
            {
              OFFSET 0.17800000 0.00000000 0.00000000
              CHANNELS 3 Zrotation Xrotation Yrotation
              End Site
              {
                OFFSET 0.07200000 0.00000000 0.00000000
              }
            }
          }
        }
      }
      JOINT RightShoulder
      {
        OFFSET 0.19800000 0.03700000 -0.04300000
        CHANNELS 3 Zrotation Xrotation Yrotation
        JOINT RightArm
        {
          OFFSET 0.08000000 0.00000000 0.00151654
          CHANNELS 3 Zrotation Xrotation Yrotation
          JOINT RightForeArm
          {
            OFFSET 0.15200000 0.00000000 0.00000000
            CHANNELS 3 Zrotation Xrotation Yrotation
            JOINT RightHand
            {
              OFFSET 0.17800000 0.00000000 0.00000000
              CHANNELS 3 Zrotation Xrotation Yrotation
              End Site
              {
                OFFSET 0.07200000 0.00000000 0.00000000
              }
            }
          }
        }
      }
    }
  }
  JOINT LeftUpLeg
  {
    OFFSET 0.05984250 -0.07666000 0.04788790
    CHANNELS 3 Zrotation Xrotation Yrotation
    JOINT LeftLeg
    {
      OFFSET 0.16000000 0.00000000 0.00000000
      CHANNELS 3 Zrotation Xrotation Yrotation
      JOINT LeftFoot
      {
        OFFSET 0.18000000 0.00000000 0.00000000
        CHANNELS 3 Zrotation Xrotation Yrotation
        End Site
        {
          OFFSET 0.00000000 -0.10800000 0.00000000
        }
      }
    }
  }
  JOINT RightUpLeg
  {
    OFFSET 0.05984250 -0.07665980 -0.04788790
    CHANNELS 3 Zrotation Xrotation Yrotation
    JOINT RightLeg
    {
      OFFSET 0.16000000 0.00000000 0.00000000
      CHANNELS 3 Zrotation Xrotation Yrotation
      JOINT RightFoot
      {
        OFFSET 0.18000000 0.00000000 0.00000000
        CHANNELS 3 Zrotation Xrotation Yrotation
        End Site
        {
          OFFSET 0.00000000 -0.10800000 0.00000000
        }
      }
    }
  }
  JOINT Tail
  {
    OFFSET 0.06836960 -0.00722574 0.00000000
    CHANNELS 3 Zrotation Xrotation Yrotation
    JOINT Tail1
    {
      OFFSET 0.12000000 0.00000000 0.00000000
      CHANNELS 3 Zrotation Xrotation Yrotation
      End Site
      {
        OFFSET 0.12000000 0.00000000 0.00000000
      }
    }
  }
}
MOTION
Frames:	10
Frame Time:	0.0166667
0.0000000 0.5016390 0.0000000 15.3732 0.71830 -0.19749 170.827 1.0136 -11.579 13.3302 -0.238347 19.9498 -21.9678 -1.99106 4.78238 -119.925 67.9946 116.683 -115.031 -45.8813 -133.368 134.404 -15.3 -123.892 -61.8189 11.9577 7.29646 -31.4591 10.9755 -30.1399 82.0212 -17.2832 32.2162 38.5002 -41.7295 -33.9172 -43.4405 -19.7086 2.63485 -20.1344 -1.20328 8.54911 -135.458 -7.64987 -15.775 115.537 4.6448 -0.461364 23.5695 -2.16406 -3.98299 -124.058 -0.778936 -1.85458 103.082 -1.65334 -3.30931 55.7671 -0.087314 -2.10415 -19.5217 4.15583 13.3251 -0.219152 -5.83949 2.07769 
-0.0653122 0.5046660 0.0018598 11.4248 0.85262 0.87227 175.27 -0.216213 -12.8273 12.305 -1.3149 21.8123 -23.724 -2.2373 6.69512 -120.392 65.8329 116.664 -113.18 -42.1327 -135.137 131.642 -21.1203 -122.26 -57.3891 19.8647 5.12124 -35.6666 11.5136 -30.1501 81.6534 -17.9865 33.536 27.6348 -44.0101 -42.5212 -27.9146 -16.8857 3.53124 -13.6201 1.34664 0.106439 -138.746 -6.39765 -15.5515 114.969 5.79044 -0.216382 23.0044 -2.18944 -3.96412 -127.984 -0.335095 -0.851919 112.682 -2.58077 -3.52743 44.6047 -0.67155 -2.10493 -13.3242 1.58037 13.9687 1.87857 -2.62133 1.0283 
-0.1296948 0.5090850 0.0036243 6.06843 1.10994 2.01439 -178.304 -1.34951 -13.0823 9.64966 -2.26614 22.1942 -24.8004 -2.23205 9.2344 -121.378 65.2274 117.933 -110.347 -37.0699 -137.082 130.969 -26.0798 -123.295 -49.6181 23.6627 1.9485 -36.7572 10.9566 -29.194 81.8472 -17.8772 34.2499 25.2849 -43.3472 -45.9885 -23.618 -15.2676 4.76673 -4.58976 3.45844 -13.3254 -139.514 -5.46967 -15.6039 110.656 7.22008 0.433494 23.2813 -2.22612 -3.9951 -129.956 -0.224803 0.403655 119.26 -5.42061 -3.63389 33.391 -1.07381 -2.08404 -5.88207 -1.15652 14.5997 4.0758 0.318361 0.0490658 
-0.1914929 0.5128100 0.0046332 -0.69591 1.25463 2.85116 -170.581 -2.11096 -12.6254 6.23928 -2.72012 20.9101 -25.2626 -3.26532 12.7927 -121.177 68.9234 121.091 -109.084 -34.3762 -138.987 132.76 -30.2551 -122.304 -39.0133 18.1602 -1.19426 -32.1263 8.23369 -25.2701 81.4407 -18.7286 35.8846 32.7081 -45.7859 -42.3866 -36.3025 -19.4275 3.69723 0.835885 5.41031 -30.3399 -138.01 -4.163 -15.973 104.333 10.4044 1.7743 25.5918 -2.39641 -4.48831 -129.744 -0.946443 0.869854 123.514 -7.69924 -3.68121 21.6733 -1.56089 -2.35717 3.541 -4.73633 15.8552 6.30571 3.98674 -1.13427 
-0.2524718 0.5133160 0.0054483 -7.20600 1.19285 3.86652 -164.943 -2.55334 -10.9663 5.07072 -2.77862 18.408 -25.6866 -4.78621 16.239 -121.347 71.7491 122.55 -108.651 -33.4471 -139.716 134.722 -30.8486 -119.913 -26.5295 12.1603 -4.14424 -25.3498 3.86751 -16.4222 80.2353 -21.2753 39.8258 36.8804 -47.3823 -43.5228 -51.5049 -18.6064 -0.0479739 5.16264 5.21276 -41.6069 -135.702 -3.07012 -15.8558 96.0348 12.8695 3.24331 28.9563 -2.63582 -5.01591 -129.826 -1.64651 1.22365 124.628 -10.0297 -3.86542 15.1402 -1.84196 -2.64829 12.8408 -8.41223 17.015 9.09837 7.79665 -2.2422 
-0.3135662 0.5105540 0.0059187 -13.1650 0.95073 4.80225 -159.985 -2.94519 -9.10346 3.55814 -3.06808 15.942 -25.9344 -5.1239 18.4227 -120.986 73.8325 125.103 -108.743 -33.6281 -139.592 138.318 -26.3969 -116.882 -7.56069 5.20169 -5.11801 -21.3501 1.40017 -8.48098 78.6074 -24.1192 41.7176 42.8537 -49.0922 -40.9115 -67.3413 -21.1007 -5.30126 1.92354 8.1991 -46.4417 -134.021 -1.94002 -15.4032 88.1131 18.6074 4.91147 34.4607 -3.36925 -6.22335 -131.086 -2.59167 0.733141 123.863 -10.3059 -3.97018 13.0052 -1.93971 -2.85869 22.808 -13.3349 18.5226 11.9736 13.2077 -3.69144 
-0.3741540 0.5057370 0.0064741 -18.1392 0.79102 5.66814 -155.307 -2.86339 -7.87648 0.581842 -3.23678 15.0021 -26.2174 -4.19647 18.23 -120.175 75.1422 128.583 -108.249 -32.9162 -139.692 138.979 -29.144 -116.062 -9.73421 -11.2158 -3.97734 -2.01558 1.7388 -1.62715 76.7451 -27.2884 43.1232 52.7676 -49.8475 -36.7068 -83.3351 -14.0633 -8.52862 5.73529 6.26658 -49.1722 -130.679 -0.260128 -13.9694 78.268 25.6041 5.98074 39.4472 -4.42167 -7.6799 -133.619 -3.0564 0.32565 120.718 -9.85831 -3.99719 15.0846 -1.85546 -2.82628 32.5747 -19.0154 20.3781 14.7127 19.5329 -5.53433 
-0.4334584 0.4996020 0.0060665 -21.8281 0.53664 6.70526 -151.286 -2.36202 -6.92195 -3.36615 -3.34604 15.1867 -26.2287 -4.03355 17.2237 -116.654 76.0236 130.412 -108.2 -32.6679 -140.096 137.277 -39.7951 -115.451 -31.7514 -38.1414 -3.36188 27.8847 4.01733 -14.0642 75.4919 -29.7181 44.6235 60.6488 -49.5793 -33.9267 -95.9954 1.89587 -10.1175 16.1842 -0.439653 -46.5507 -127.807 -1.44796 -12.4402 71.0919 24.7594 6.40367 45.5375 -4.32137 -7.22313 -136.735 -3.10934 0.225691 114.324 -10.7537 -4.10957 21.1142 -1.35702 -2.18433 40.8965 -24.4157 21.9362 17.1192 25.6618 -7.38234 
-0.4921703 0.4920630 0.0060815 -23.9798 0.72305 7.59102 -149.081 -1.49042 -5.07709 -7.17553 -3.2047 13.909 -25.3382 -4.5721 16.3795 -112.368 76.9139 129.529 -108.74 -33.5889 -139.668 138.544 -51.8315 -116.147 -48.6257 -63.7323 6.037 47.0459 -1.94206 -33.9158 74.8966 -30.9306 45.3865 63.9394 -46.7344 -32.9616 -103.716 13.4641 -12.0964 19.4345 -2.11519 -36.9918 -123.547 -2.20836 -11.3102 65.6864 22.6046 6.51276 50.7454 -4.12631 -6.85198 -139.803 -2.91858 -0.488622 106.012 -9.56041 -3.96942 27.4027 -0.895392 -1.82036 47.0017 -28.7221 24.3379 18.6194 31.1092 -7.79134 
-0.5512450 0.4822800 0.0062889 -24.6910 1.02698 8.69361 -148.503 -0.151302 -2.77693 -11.102 -2.75171 12.4064 -22.8855 -5.80678 15.7719 -106.704 78.3305 124.48 -109.915 -35.2017 -139.593 130.247 -56.3532 -122.627 21.979 -80.3136 96.5208 37.606 -4.4874 -59.4106 74.316 -32.0379 45.9134 65.1994 -41.2539 -33.3091 -107.28 19.5149 -14.1319 18.6851 -1.49714 -29.9999 -118.142 -3.62301 -11.7193 62.8123 19.6197 7.19131 52.2059 -3.91742 -6.58775 -141.946 -3.10047 -1.71244 95.463 -7.90332 -3.50209 34.1448 -0.475007 -1.65522 50.0779 -31.4705 26.3854 18.7437 34.7862 -6.93151 
